<svg width="28" height="29" viewBox="0 0 28 29" fill="none" xmlns="http://www.w3.org/2000/svg">
<path d="M9.23992 16.2147C10.8849 16.2147 12.2033 17.5459 12.2033 19.2025V23.1797C12.2033 24.8247 10.8849 26.1664 9.23992 26.1664H5.29658C3.66325 26.1664 2.33325 24.8247 2.33325 23.1797V19.2025C2.33325 17.5459 3.66325 16.2147 5.29658 16.2147H9.23992ZM22.7034 16.2147C24.3367 16.2147 25.6667 17.5459 25.6667 19.2025V23.1797C25.6667 24.8247 24.3367 26.1664 22.7034 26.1664H18.76C17.115 26.1664 15.7967 24.8247 15.7967 23.1797V19.2025C15.7967 17.5459 17.115 16.2147 18.76 16.2147H22.7034ZM9.23992 2.83337C10.8849 2.83337 12.2033 4.17504 12.2033 5.82121V9.79837C12.2033 11.455 10.8849 12.785 9.23992 12.785H5.29658C3.66325 12.785 2.33325 11.455 2.33325 9.79837V5.82121C2.33325 4.17504 3.66325 2.83337 5.29658 2.83337H9.23992ZM22.7034 2.83337C24.3367 2.83337 25.6667 4.17504 25.6667 5.82121V9.79837C25.6667 11.455 24.3367 12.785 22.7034 12.785H18.76C17.115 12.785 15.7967 11.455 15.7967 9.79837V5.82121C15.7967 4.17504 17.115 2.83337 18.76 2.83337H22.7034Z" fill="white"/>
</svg>
