<svg width="30" height="31" viewBox="0 0 30 31" fill="none" xmlns="http://www.w3.org/2000/svg">
<path d="M24.9872 24.1916C25.6836 24.1916 26.25 24.7653 26.25 25.4708C26.25 26.1776 25.6836 26.75 24.9872 26.75H17.8496C17.1532 26.75 16.5868 26.1776 16.5868 25.4708C16.5868 24.7653 17.1532 24.1916 17.8496 24.1916H24.9872ZM20.0373 5.12383L21.8811 6.58848C22.6372 7.17972 23.1412 7.95907 23.3136 8.77874C23.5126 9.68037 23.3004 10.5659 22.7035 11.3318L11.7205 25.5349C11.2164 26.1799 10.4736 26.5427 9.67777 26.5561L5.30049 26.6098C5.06173 26.6098 4.86277 26.4486 4.80971 26.2202L3.81487 21.9068C3.64243 21.1141 3.81487 20.2944 4.31892 19.6628L12.1052 9.58497C12.2378 9.42372 12.4766 9.39819 12.6357 9.51778L15.9121 12.1246C16.1243 12.2993 16.4161 12.3933 16.7212 12.353C17.3712 12.2724 17.8089 11.6812 17.7426 11.0496C17.7028 10.7271 17.5436 10.4584 17.3314 10.2568C17.265 10.2031 14.1479 7.70376 14.1479 7.70376C13.9489 7.54252 13.9091 7.2469 14.0683 7.04669L15.3019 5.44632C16.4426 3.98167 18.4323 3.8473 20.0373 5.12383Z" fill="white"/>
</svg>
