<svg width="33" height="32" viewBox="0 0 33 32" fill="none" xmlns="http://www.w3.org/2000/svg">
<path d="M6.16699 2.72812L6.32788 2.5H24.202L25.167 4.51156L25.0061 4.73969H21.3066L21.3469 10.0278L21.1058 10.3181C19.9599 10.2766 18.8137 10.2559 17.5469 10.2559C14.9533 10.2559 12.9427 10.6706 12.0983 11.4378C11.4547 11.9978 11.2135 12.6822 11.2135 13.3456C11.2135 14.2788 11.5553 15.0253 12.1989 15.6059C13.8274 14.175 15.6974 13.2625 18.0295 13.2625C19.7184 13.2625 20.8646 13.9263 21.8096 14.88C22.7546 15.8338 23.3376 17.2025 23.3376 18.5091C23.3376 20.4375 21.8096 21.8478 19.4972 22.9469H19.3563C18.7734 22.3869 18.1498 21.7234 17.406 20.7694C19.7181 19.7325 21.4675 18.5919 21.4675 17.2234C21.4675 16.3731 20.804 15.7303 19.1554 15.7303C17.1248 15.7303 12.9024 17.41 12.9024 20.7488C12.9024 24.6681 17.6878 26.3684 23.9405 27.0322L22.4525 29.5H22.3117C15.0133 27.5922 10.4894 24.5644 10.4894 19.7328C10.4894 18.6959 10.7509 17.6797 11.3338 16.7675C9.70528 15.2537 8.80056 13.6775 8.80056 12.1016C8.80056 10.6706 9.36351 9.57156 10.4894 8.84593C11.555 8.18218 13.4247 7.89187 16.0589 7.89187H18.4916C18.8534 7.89187 19.0345 7.68437 19.0345 7.3528V4.73999H7.13201L6.16699 2.72812Z" fill="white"/>
</svg>
