<svg width="28" height="28" viewBox="0 0 28 28" fill="none" xmlns="http://www.w3.org/2000/svg">
<path d="M14.0054 7.71074C10.5273 7.71074 7.72183 10.5162 7.72183 13.9943C7.72183 17.4725 10.5273 20.2779 14.0054 20.2779C17.4835 20.2779 20.289 17.4725 20.289 13.9943C20.289 10.5162 17.4835 7.71074 14.0054 7.71074ZM14.0054 18.0795C11.7578 18.0795 9.92026 16.2475 9.92026 13.9943C9.92026 11.7412 11.7523 9.90918 14.0054 9.90918C16.2585 9.90918 18.0906 11.7412 18.0906 13.9943C18.0906 16.2475 16.2531 18.0795 14.0054 18.0795V18.0795ZM22.0117 7.45371C22.0117 8.26855 21.3554 8.91934 20.546 8.91934C19.7312 8.91934 19.0804 8.26309 19.0804 7.45371C19.0804 6.64434 19.7367 5.98809 20.546 5.98809C21.3554 5.98809 22.0117 6.64434 22.0117 7.45371ZM26.1734 8.94121C26.0804 6.97793 25.632 5.23887 24.1937 3.80605C22.7609 2.37324 21.0218 1.9248 19.0585 1.82637C17.0351 1.71152 10.9703 1.71152 8.94683 1.82637C6.98901 1.91934 5.24995 2.36777 3.81167 3.80059C2.37339 5.2334 1.93042 6.97246 1.83198 8.93574C1.71714 10.9592 1.71714 17.024 1.83198 19.0475C1.92495 21.0107 2.37339 22.7498 3.81167 24.1826C5.24995 25.6154 6.98355 26.0639 8.94683 26.1623C10.9703 26.2771 17.0351 26.2771 19.0585 26.1623C21.0218 26.0693 22.7609 25.6209 24.1937 24.1826C25.6265 22.7498 26.075 21.0107 26.1734 19.0475C26.2882 17.024 26.2882 10.9646 26.1734 8.94121V8.94121ZM23.5593 21.2186C23.1328 22.2904 22.307 23.1162 21.2296 23.5482C19.6164 24.1881 15.7882 24.0404 14.0054 24.0404C12.2226 24.0404 8.38901 24.1826 6.7812 23.5482C5.70933 23.1217 4.88355 22.2959 4.45151 21.2186C3.81167 19.6053 3.95933 15.7771 3.95933 13.9943C3.95933 12.2115 3.81714 8.37793 4.45151 6.77012C4.87808 5.69824 5.70386 4.87246 6.7812 4.44043C8.39448 3.80059 12.2226 3.94824 14.0054 3.94824C15.7882 3.94824 19.6218 3.80605 21.2296 4.44043C22.3015 4.86699 23.1273 5.69277 23.5593 6.77012C24.1992 8.3834 24.0515 12.2115 24.0515 13.9943C24.0515 15.7771 24.1992 19.6107 23.5593 21.2186Z" fill="white"/>
</svg>
