<svg width="28" height="28" viewBox="0 0 28 28" fill="none" xmlns="http://www.w3.org/2000/svg">
<path d="M24.5 1.75H3.49453C2.53203 1.75 1.75 2.54297 1.75 3.51641V24.4836C1.75 25.457 2.53203 26.25 3.49453 26.25H24.5C25.4625 26.25 26.25 25.457 26.25 24.4836V3.51641C26.25 2.54297 25.4625 1.75 24.5 1.75ZM9.15469 22.75H5.52344V11.0578H9.16016V22.75H9.15469ZM7.33906 9.46094C6.17422 9.46094 5.23359 8.51484 5.23359 7.35547C5.23359 6.19609 6.17422 5.25 7.33906 5.25C8.49844 5.25 9.44453 6.19609 9.44453 7.35547C9.44453 8.52031 8.50391 9.46094 7.33906 9.46094V9.46094ZM22.7664 22.75H19.1352V17.0625C19.1352 15.7063 19.1078 13.9617 17.2484 13.9617C15.3562 13.9617 15.0664 15.4383 15.0664 16.9641V22.75H11.4352V11.0578H14.9188V12.6547H14.968C15.4547 11.7359 16.6414 10.768 18.4078 10.768C22.0828 10.768 22.7664 13.1906 22.7664 16.3406V22.75V22.75Z" fill="white"/>
</svg>
