<!-- <svg width="32" height="33" viewBox="0 0 32 33" fill="none" xmlns="http://www.w3.org/2000/svg">
<path d="M15.7512 6C17.4981 6 18.9906 6.23498 20.2289 6.70495C21.4892 7.15018 22.5285 7.80565 23.3466 8.67138C23.9657 9.28975 24.4632 9.9947 24.8391 10.7862C25.2371 11.5777 25.5246 12.4929 25.7015 13.5318C25.9005 14.5707 26 15.7703 26 17.1307V27H6V17.0565C6 15.7703 6.08845 14.6201 6.26534 13.606C6.46435 12.5671 6.7518 11.6519 7.12769 10.8604C7.5257 10.0442 8.01216 9.32685 8.58706 8.70848C9.4052 7.84276 10.3892 7.17491 11.539 6.70495C12.7109 6.23498 14.115 6 15.7512 6ZM14.1924 8.63427C13.2637 8.63427 12.4455 8.89399 11.738 9.41343C11.0304 9.93286 10.4555 10.6254 10.0133 11.4912C9.65948 12.1837 9.37203 13.0371 9.15091 14.0512C8.95191 15.0406 8.8524 16.2774 8.8524 17.7615V24.477H9.01824C10.5218 23.2155 11.8596 21.8922 13.0315 20.5071C14.2034 19.1219 15.1211 17.712 15.7844 16.2774C16.4699 14.8428 16.8126 13.4452 16.8126 12.0848C16.8126 11.3922 16.7131 10.7986 16.5141 10.3039C16.3372 9.78445 16.0608 9.37633 15.6849 9.07951C15.309 8.78268 14.8115 8.63427 14.1924 8.63427ZM19.665 12.4187C19.665 13.8781 19.3665 15.3127 18.7695 16.7226C18.1725 18.1325 17.3212 19.5548 16.2156 20.9894C15.11 22.3993 13.7944 23.8463 12.2687 25.3304L12.2023 24.5883C12.8436 24.5389 13.4737 24.5018 14.0929 24.477C14.712 24.4276 15.3311 24.4028 15.9502 24.4028H23.1476V17.7615C23.1476 15.9311 22.9818 14.4099 22.6501 13.1979C22.3405 11.9859 21.8209 11.0212 21.0912 10.3039C20.3615 9.56184 19.3997 9.01767 18.2056 8.67138L18.272 8.41166C18.6921 8.95583 19.0238 9.5371 19.267 10.1555C19.5323 10.7491 19.665 11.5035 19.665 12.4187Z" fill="white"/>
</svg> -->
<!-- <svg width="32" height="33" viewBox="0 0 32 33" xmlns="http://www.w3.org/2000/svg">
  <path d="M15.7512 6C17.4981 6 18.9906 6.23498 20.2289 6.70495C21.4892 7.15018 22.5285 7.80565 23.3466 8.67138C23.9657 9.28975 24.4632 9.9947 24.8391 10.7862C25.2371 11.5777 25.5246 12.4929 25.7015 13.5318C25.9005 14.5707 26 15.7703 26 17.1307V27H6V17.0565C6 15.7703 6.08845 14.6201 6.26534 13.606C6.46435 12.5671 6.7518 11.6519 7.12769 10.8604C7.5257 10.0442 8.01216 9.32685 8.58706 8.70848C9.4052 7.84276 10.3892 7.17491 11.539 6.70495C12.7109 6.23498 14.115 6 15.7512 6ZM14.1924 8.63427C13.2637 8.63427 12.4455 8.89399 11.738 9.41343C11.0304 9.93286 10.4555 10.6254 10.0133 11.4912C9.65948 12.1837 9.37203 13.0371 9.15091 14.0512C8.95191 15.0406 8.8524 16.2774 8.8524 17.7615V24.477H9.01824C10.5218 23.2155 11.8596 21.8922 13.0315 20.5071C14.2034 19.1219 15.1211 17.712 15.7844 16.2774C16.4699 14.8428 16.8126 13.4452 16.8126 12.0848C16.8126 11.3922 16.7131 10.7986 16.5141 10.3039C16.3372 9.78445 16.0608 9.37633 15.6849 9.07951C15.309 8.78268 14.8115 8.63427 14.1924 8.63427ZM19.665 12.4187C19.665 13.8781 19.3665 15.3127 18.7695 16.7226C18.1725 18.1325 17.3212 19.5548 16.2156 20.9894C15.11 22.3993 13.7944 23.8463 12.2687 25.3304L12.2023 24.5883C12.8436 24.5389 13.4737 24.5018 14.0929 24.477C14.712 24.4276 15.3311 24.4028 15.9502 24.4028H23.1476V17.7615C23.1476 15.9311 22.9818 14.4099 22.6501 13.1979C22.3405 11.9859 21.8209 11.0212 21.0912 10.3039C20.3615 9.56184 19.3997 9.01767 18.2056 8.67138L18.272 8.41166C18.6921 8.95583 19.0238 9.5371 19.267 10.1555C19.5323 10.7491 19.665 11.5035 19.665 12.4187Z" fill="white"/> 
  <text x="5" y="20" font-family="Verdana" font-size="5" fill="white">M</text>
</svg> -->

<svg width="32" height="33" viewBox="0 0 32 33" xmlns="http://www.w3.org/2000/svg">
  <!-- Circle centered at (16, 16) with a radius of 12 -->
  <!-- <circle cx="16" cy="16" r="12" fill="none" stroke="white" stroke-width="2"/> -->
  
  <!-- Path (shape) remains unchanged -->
  <!-- <path d="M15.7512 6C17.4981 6 18.9906 6.23498 20.2289 6.70495C21.4892 7.15018 22.5285 7.80565 23.3466 8.67138C23.9657 9.28975 24.4632 9.9947 24.8391 10.7862C25.2371 11.5777 25.5246 12.4929 25.7015 13.5318C25.9005 14.5707 26 15.7703 26 17.1307V27H6V17.0565C6 15.7703 6.08845 14.6201 6.26534 13.606C6.46435 12.5671 6.7518 11.6519 7.12769 10.8604C7.5257 10.0442 8.01216 9.32685 8.58706 8.70848C9.4052 7.84276 10.3892 7.17491 11.539 6.70495C12.7109 6.23498 14.115 6 15.7512 6ZM14.1924 8.63427C13.2637 8.63427 12.4455 8.89399 11.738 9.41343C11.0304 9.93286 10.4555 10.6254 10.0133 11.4912C9.65948 12.1837 9.37203 13.0371 9.15091 14.0512C8.95191 15.0406 8.8524 16.2774 8.8524 17.7615V24.477H9.01824C10.5218 23.2155 11.8596 21.8922 13.0315 20.5071C14.2034 19.1219 15.1211 17.712 15.7844 16.2774C16.4699 14.8428 16.8126 13.4452 16.8126 12.0848C16.8126 11.3922 16.7131 10.7986 16.5141 10.3039C16.3372 9.78445 16.0608 9.37633 15.6849 9.07951C15.309 8.78268 14.8115 8.63427 14.1924 8.63427ZM19.665 12.4187C19.665 13.8781 19.3665 15.3127 18.7695 16.7226C18.1725 18.1325 17.3212 19.5548 16.2156 20.9894C15.11 22.3993 13.7944 23.8463 12.2687 25.3304L12.2023 24.5883C12.8436 24.5389 13.4737 24.5018 14.0929 24.477C14.712 24.4276 15.3311 24.4028 15.9502 24.4028H23.1476V17.7615C23.1476 15.9311 22.9818 14.4099 22.6501 13.1979C22.3405 11.9859 21.8209 11.0212 21.0912 10.3039C20.3615 9.56184 19.3997 9.01767 18.2056 8.67138L18.272 8.41166C18.6921 8.95583 19.0238 9.5371 19.267 10.1555C19.5323 10.7491 19.665 11.5035 19.665 12.4187Z" fill="white"/>  -->
  
  <!-- Text "рдо" centered at (16, 16) -->
  <!-- <text x="16" y="16" font-family="Verdana" font-size="50" fill="white" text-anchor="middle" alignment-baseline="middle">рдо</text> -->
  <text x="16" y="16" font-family="Poppins, sans-serif" font-size="40" fill="white" text-anchor="middle" alignment-baseline="middle">рдо</text>

</svg>

