<svg width="22" height="22" viewBox="0 0 22 22" fill="none" xmlns="http://www.w3.org/2000/svg">
<g clip-path="url(#clip0_65_2018)">
<path d="M12.0625 6.07812V0.5H3.85938C3.31387 0.5 2.875 0.938867 2.875 1.48438V20.5156C2.875 21.0611 3.31387 21.5 3.85938 21.5H17.6406C18.1861 21.5 18.625 21.0611 18.625 20.5156V7.0625H13.0469C12.5055 7.0625 12.0625 6.61953 12.0625 6.07812ZM14.6875 15.7578C14.6875 16.0285 14.466 16.25 14.1953 16.25H7.30469C7.03398 16.25 6.8125 16.0285 6.8125 15.7578V15.4297C6.8125 15.159 7.03398 14.9375 7.30469 14.9375H14.1953C14.466 14.9375 14.6875 15.159 14.6875 15.4297V15.7578ZM14.6875 13.1328C14.6875 13.4035 14.466 13.625 14.1953 13.625H7.30469C7.03398 13.625 6.8125 13.4035 6.8125 13.1328V12.8047C6.8125 12.534 7.03398 12.3125 7.30469 12.3125H14.1953C14.466 12.3125 14.6875 12.534 14.6875 12.8047V13.1328ZM14.6875 10.1797V10.5078C14.6875 10.7785 14.466 11 14.1953 11H7.30469C7.03398 11 6.8125 10.7785 6.8125 10.5078V10.1797C6.8125 9.90898 7.03398 9.6875 7.30469 9.6875H14.1953C14.466 9.6875 14.6875 9.90898 14.6875 10.1797ZM18.625 5.4998V5.75H13.375V0.5H13.6252C13.8877 0.5 14.1379 0.602539 14.3225 0.787109L18.3379 4.80664C18.5225 4.99121 18.625 5.24141 18.625 5.4998Z" fill="white"/>
</g>
<defs>
<clipPath id="clip0_65_2018">
<rect width="21" height="21" fill="white" transform="translate(0.25 0.5)"/>
</clipPath>
</defs>
</svg>
