<svg width="30" height="31" viewBox="0 0 30 31" fill="none" xmlns="http://www.w3.org/2000/svg">
<path d="M15.8965 3.00012C16.8418 3.00012 17.6977 3.52512 18.1704 4.30012C18.4003 4.67512 18.5536 5.13762 18.5153 5.62512C18.4897 6.00012 18.6047 6.37512 18.8091 6.72512C19.4606 7.78762 20.9041 8.18762 22.0283 7.58762C23.2929 6.86262 24.8898 7.30012 25.6179 8.53762L26.4738 10.0126C27.2147 11.2501 26.8059 12.8376 25.5285 13.5501C24.4427 14.1876 24.0594 15.6001 24.7109 16.6751C24.9153 17.0126 25.1452 17.3001 25.5029 17.4751C25.95 17.7126 26.2949 18.0876 26.5377 18.4626C27.0103 19.2376 26.972 20.1876 26.5121 21.0251L25.6179 22.5251C25.1452 23.3251 24.2638 23.8251 23.3568 23.8251C22.9097 23.8251 22.4115 23.7001 22.0027 23.4501C21.6706 23.2376 21.2874 23.1626 20.8786 23.1626C19.6139 23.1626 18.5536 24.2001 18.5153 25.4376C18.5153 26.8751 17.34 28.0001 15.871 28.0001H14.1337C12.6518 28.0001 11.4766 26.8751 11.4766 25.4376C11.451 24.2001 10.3907 23.1626 9.12606 23.1626C8.70451 23.1626 8.32127 23.2376 8.00191 23.4501C7.59313 23.7001 7.08215 23.8251 6.64782 23.8251C5.72806 23.8251 4.84662 23.3251 4.37396 22.5251L3.49252 21.0251C3.01987 20.2126 2.99432 19.2376 3.46698 18.4626C3.67137 18.0876 4.0546 17.7126 4.48893 17.4751C4.84662 17.3001 5.07656 17.0126 5.29372 16.6751C5.93245 15.6001 5.54921 14.1876 4.46338 13.5501C3.19871 12.8376 2.78993 11.2501 3.51807 10.0126L4.37396 8.53762C5.11488 7.30012 6.69892 6.86262 7.97636 7.58762C9.08774 8.18762 10.5313 7.78762 11.1828 6.72512C11.3871 6.37512 11.5021 6.00012 11.4766 5.62512C11.451 5.13762 11.5915 4.67512 11.8343 4.30012C12.3069 3.52512 13.1628 3.02512 14.0953 3.00012H15.8965ZM15.0151 11.9751C13.0095 11.9751 11.3871 13.5501 11.3871 15.5126C11.3871 17.4751 13.0095 19.0376 15.0151 19.0376C17.0207 19.0376 18.6047 17.4751 18.6047 15.5126C18.6047 13.5501 17.0207 11.9751 15.0151 11.9751Z" fill="white"/>
</svg>
