<svg width="30" height="31" viewBox="0 0 30 31" fill="none" xmlns="http://www.w3.org/2000/svg">
<path d="M22.3981 18.4001C22.0744 18.7139 21.9256 19.1676 21.9994 19.6126L23.1106 25.7626C23.2044 26.2839 22.9844 26.8114 22.5481 27.1126C22.1206 27.4251 21.5519 27.4626 21.0856 27.2126L15.5494 24.3251C15.3569 24.2226 15.1431 24.1676 14.9244 24.1614H14.5856C14.4681 24.1789 14.3531 24.2164 14.2481 24.2739L8.71061 27.1751C8.43686 27.3126 8.12686 27.3614 7.82311 27.3126C7.08311 27.1726 6.58936 26.4676 6.71061 25.7239L7.82311 19.5739C7.89686 19.1251 7.74811 18.6689 7.42436 18.3501L2.91061 13.9751C2.53311 13.6089 2.40186 13.0589 2.57436 12.5626C2.74186 12.0676 3.16936 11.7064 3.68561 11.6251L9.89811 10.7239C10.3706 10.6751 10.7856 10.3876 10.9981 9.96262L13.7356 4.35012C13.8006 4.22512 13.8844 4.11012 13.9856 4.01262L14.0981 3.92512C14.1569 3.86012 14.2244 3.80637 14.2994 3.76262L14.4356 3.71262L14.6481 3.62512H15.1744C15.6444 3.67387 16.0581 3.95512 16.2744 4.37512L19.0481 9.96262C19.2481 10.3714 19.6369 10.6551 20.0856 10.7239L26.2981 11.6251C26.8231 11.7001 27.2619 12.0626 27.4356 12.5626C27.5994 13.0639 27.4581 13.6139 27.0731 13.9751L22.3981 18.4001Z" fill="white"/>
</svg>
