<svg width="28" height="28" viewBox="0 0 28 28" fill="none" xmlns="http://www.w3.org/2000/svg">
<path d="M22.5805 5.31016C20.2891 3.01328 17.2375 1.75 13.9945 1.75C7.30078 1.75 1.85391 7.19687 1.85391 13.8906C1.85391 16.0289 2.41172 18.118 3.47266 19.9609L1.75 26.25L8.18672 24.5602C9.95859 25.5281 11.9547 26.0367 13.9891 26.0367H13.9945C20.6828 26.0367 26.25 20.5898 26.25 13.8961C26.25 10.6531 24.8719 7.60703 22.5805 5.31016V5.31016ZM13.9945 23.9914C12.1789 23.9914 10.4016 23.5047 8.85391 22.5859L8.4875 22.3672L4.67031 23.368L5.6875 19.6438L5.44687 19.2609C4.43516 17.6531 3.90469 15.7992 3.90469 13.8906C3.90469 8.32891 8.43281 3.80078 14 3.80078C16.6961 3.80078 19.2281 4.85078 21.1312 6.75937C23.0344 8.66797 24.2047 11.2 24.1992 13.8961C24.1992 19.4633 19.5562 23.9914 13.9945 23.9914V23.9914ZM19.5289 16.4336C19.2281 16.2805 17.7352 15.5477 17.4563 15.4492C17.1773 15.3453 16.975 15.2961 16.7727 15.6023C16.5703 15.9086 15.9906 16.5867 15.8102 16.7945C15.6352 16.9969 15.4547 17.0242 15.1539 16.8711C13.3711 15.9797 12.2008 15.2797 11.025 13.2617C10.7133 12.7258 11.3367 12.7641 11.9164 11.6047C12.0148 11.4023 11.9656 11.2273 11.8891 11.0742C11.8125 10.9211 11.2055 9.42813 10.9539 8.82109C10.7078 8.23047 10.4563 8.3125 10.2703 8.30156C10.0953 8.29063 9.89297 8.29063 9.69062 8.29063C9.48828 8.29063 9.16016 8.36719 8.88125 8.66797C8.60234 8.97422 7.82031 9.70703 7.82031 11.2C7.82031 12.693 8.90859 14.1367 9.05625 14.3391C9.20938 14.5414 11.1945 17.6039 14.2406 18.9219C16.1656 19.7531 16.9203 19.8242 17.8828 19.682C18.468 19.5945 19.6766 18.9492 19.9281 18.2383C20.1797 17.5273 20.1797 16.9203 20.1031 16.7945C20.032 16.6578 19.8297 16.5813 19.5289 16.4336Z" fill="white"/>
</svg>
