<svg xmlns="http://www.w3.org/2000/svg" width="28" height="30" fill="none" xmlns:v="https://vecta.io/nano"><g clip-path="url(#A)"><path d="M26.147 9.368a2.42 2.42 0 0 0-.296-1.215 2.32 2.32 0 0 0-.88-.857L15.262 1.7c-.872-.504-1.717-.486-2.583.026L3.023 7.295c-.791.458-1.176 1.16-1.176 2.072v11.266c-.008.415.09.825.285 1.192.211.371.52.675.894.881l9.658 5.571c.866.512 1.711.53 2.584.026l9.709-5.598c.374-.205.683-.51.894-.881a2.43 2.43 0 0 0 .285-1.191V9.368h-.009z" fill="#004482"/><path d="M26.149 20.633a2.43 2.43 0 0 1-.285 1.191c-.048.087-.102.171-.162.25L13.997 15l10.974-7.704c.365.202.668.498.878.857a2.41 2.41 0 0 1 .297 1.215l.002 11.265h0z" fill="#00599c"/><path d="M25.849 8.153L2.129 21.824a2.43 2.43 0 0 1-.283-1.19V9.367c0-.912.386-1.614 1.176-2.072l9.659-5.571c.864-.512 1.71-.53 2.582-.026l9.709 5.598c.365.202.668.498.878.857h0z" fill="#659ad2"/><path d="M14.466 19.551a4.46 4.46 0 0 1-3.912-2.306l-.112-.215c-.476-.983-.575-2.107-.278-3.158s.969-1.957 1.889-2.546 2.024-.82 3.103-.65 2.058.731 2.752 1.575l.171.223.078.112 3.92-2.258-.3-.447-.165-.224A8.93 8.93 0 0 0 9.728 7.58 8.93 8.93 0 0 0 6.62 19.238l.112.212a8.93 8.93 0 0 0 7.534 4.524 8.93 8.93 0 0 0 7.762-4.12l-3.832-2.317c-.406.619-.959 1.127-1.61 1.478s-1.38.535-2.119.535h0z" fill="#fff"/></g><defs><clipPath id="A"><path fill="#fff" transform="translate(1.5 .211)" d="M0 0h25v29.579H0z"/></clipPath></defs></svg>