<svg xmlns="http://www.w3.org/2000/svg" width="28" height="28" fill="none" xmlns:v="https://vecta.io/nano"><g clip-path="url(#A)"><path d="M24.372 2.154L22.47 23.455l-8.547 2.37-8.524-2.366L3.5 2.154h20.872z" fill="#264de4"/><path d="M20.843 22.099l1.625-18.203h-8.532v20.118l6.907-1.915z" fill="#2965f1"/><g fill="#ebebeb"><path d="M7.854 11.798l.234 2.613h5.847v-2.613H7.854zm6.082-5.289h-.009-6.543l.238 2.613h6.314V6.509zm0 14.793v-2.718l-.011.003-2.91-.786-.186-2.084H9.414 8.206l.366 4.103 5.352 1.486.012-.003z"/></g><path d="M17.144 14.411l-.303 3.389-2.914.787v2.719l5.357-1.485.039-.442.614-6.879.064-.702.472-5.289h-6.545v2.613h3.682l-.238 2.676h-3.444v2.613h3.218z" fill="#fff"/></g><defs><clipPath id="A"><path fill="#fff" transform="translate(3.5 2.073)" d="M0 0h21v23.854H0z"/></clipPath></defs></svg>