<svg xmlns="http://www.w3.org/2000/svg" width="28" height="28" fill="none" xmlns:v="https://vecta.io/nano"><g clip-path="url(#A)"><path d="M17.166 10.114l-2.8 2.607-2.599-5.245 1.343-3.016c.339-.602.894-.61 1.234 0l2.823 5.654z" fill="#ffa000"/><path d="M14.367 12.72L3.892 22.462l7.875-14.986 2.599 5.244z" fill="#f57f17"/><path d="M20.236 6.126c.502-.478 1.018-.317 1.149.362l2.723 15.842-9.032 5.422c-.317.177-1.157.246-1.157.246s-.764-.093-1.057-.254l-8.971-5.283L20.236 6.126z" fill="#ffca28"/><path d="M11.767 7.476L3.892 22.462 7.402.557c.132-.679.516-.748.864-.146l3.502 7.065z" fill="#ffa000"/></g><defs><clipPath id="A"><path fill="#fff" transform="translate(3.892)" d="M0 0h20.216v28H0z"/></clipPath></defs></svg>