<svg xmlns="http://www.w3.org/2000/svg" width="28" height="28" fill="none" xmlns:v="https://vecta.io/nano"><g clip-path="url(#A)"><path d="M5.478 23.721L3.584 2.452h20.833l-1.895 21.258-8.539 2.366" fill="#e44d26"/><path d="M14 24.266V4.197h8.516l-1.625 18.145" fill="#f16529"/><path d="M7.454 6.799H14v2.607h-3.686l.241 2.67H14v2.601H8.166m.115 1.309h2.618l.184 2.084 2.917.781v2.722L8.648 20.08" fill="#ebebeb"/><path d="M20.523 6.799h-6.535v2.607h6.293m-.235 2.67h-6.058v2.607h3.216l-.304 3.388-2.911.781v2.71l5.34-1.481" fill="#fff"/></g><defs><clipPath id="A"><path fill="#fff" transform="translate(3.5 1.925)" d="M0 0h21v24.15H0z"/></clipPath></defs></svg>