<svg xmlns="http://www.w3.org/2000/svg" width="28" height="28" fill="none" xmlns:v="https://vecta.io/nano"><path d="M26 2H2V26H26V2Z" fill="#f7df1e"/><path d="M18.122 20.75c.483.789 1.112 1.37 2.225 1.37.934 0 1.531-.467 1.531-1.112 0-.773-.613-1.047-1.642-1.497l-.564-.242c-1.627-.693-2.709-1.562-2.709-3.398 0-1.692 1.289-2.979 3.303-2.979 1.434 0 2.465.499 3.208 1.806l-1.756 1.128c-.387-.693-.804-.966-1.451-.966-.661 0-1.079.419-1.079.966 0 .677.419.95 1.387 1.37l.564.242c1.916.822 2.998 1.659 2.998 3.543 0 2.031-1.595 3.143-3.737 3.143-2.094 0-3.448-.998-4.11-2.306l1.833-1.065zm-7.967.195c.354.629.677 1.16 1.452 1.16.741 0 1.208-.29 1.208-1.417V13.02h2.255v7.699c0 2.335-1.369 3.398-3.368 3.398-1.806 0-2.851-.934-3.383-2.06l1.836-1.111z" fill="#000"/></svg>