<svg xmlns="http://www.w3.org/2000/svg" width="28" height="28" fill="none" xmlns:v="https://vecta.io/nano"><g clip-path="url(#A)" fill="#00546b"><path d="M24.933 20.928c-1.413-.035-2.509.106-3.428.495-.265.106-.689.106-.725.442.141.141.159.371.283.565.212.353.583.831.919 1.078l1.131.813c.689.424 1.467.672 2.138 1.096.389.247.777.566 1.166.831.194.141.318.371.566.459v-.053c-.124-.159-.159-.389-.283-.566l-.53-.512c-.512-.689-1.148-1.29-1.838-1.785-.565-.389-1.802-.919-2.032-1.573l-.035-.035c.389-.035.848-.177 1.219-.283.601-.159 1.149-.124 1.767-.283l.848-.247v-.159c-.318-.318-.548-.742-.883-1.043-.901-.778-1.891-1.537-2.916-2.173-.548-.353-1.255-.583-1.838-.883-.212-.106-.565-.159-.689-.336-.318-.389-.495-.901-.724-1.36L17.6 12.34c-.318-.689-.512-1.378-.901-2.014-1.82-3.004-3.799-4.824-6.838-6.609-.654-.371-1.431-.53-2.262-.724l-1.325-.071c-.283-.124-.566-.459-.813-.618C4.454 1.668 1.856.29 1.114 2.11c-.477 1.148.707 2.279 1.113 2.863.301.406.689.866.901 1.325.124.3.159.619.283.937l.919 2.368c.194.371.406.76.654 1.095.141.194.389.283.442.601-.247.353-.265.884-.407 1.325-.636 1.997-.389 4.47.512 5.937.283.442.954 1.414 1.855 1.043.795-.318.619-1.325.848-2.209.053-.212.018-.354.124-.495v.035l.724 1.467c.548.866 1.502 1.767 2.297 2.368.424.318.76.866 1.29 1.06v-.053h-.036c-.106-.159-.265-.23-.406-.354-.318-.318-.672-.707-.919-1.06-.742-.99-1.396-2.085-1.979-3.216-.283-.548-.53-1.149-.76-1.696-.106-.212-.106-.53-.283-.636-.265.389-.654.724-.848 1.201-.336.76-.371 1.696-.495 2.668-.071.018-.035 0-.071.036-.565-.142-.76-.725-.972-1.219-.53-1.255-.619-3.269-.159-4.718.124-.371.654-1.537.442-1.891-.106-.336-.46-.53-.654-.795a7.12 7.12 0 0 1-.636-1.131C4.471 7.976 4.259 6.88 3.8 5.89c-.212-.459-.583-.936-.884-1.361-.336-.477-.707-.813-.972-1.378-.088-.194-.212-.512-.071-.724.035-.141.106-.194.247-.23.23-.194.884.053 1.113.159.654.265 1.202.512 1.749.883.247.177.512.512.83.601h.371c.566.124 1.201.035 1.732.194.937.3 1.785.742 2.545 1.219a15.68 15.68 0 0 1 5.513 6.043c.212.406.3.777.495 1.202l1.201 2.598c.371.83.724 1.679 1.255 2.368.265.371 1.325.565 1.802.76.354.159.901.3 1.219.495l1.767 1.201c.283.212 1.166.654 1.219 1.007zM6.909 5.572a2.8 2.8 0 0 0-.724.088v.035h.035c.141.283.389.477.565.724l.407.848.035-.035c.247-.177.371-.459.371-.884-.106-.124-.124-.247-.212-.371-.106-.177-.336-.265-.477-.407z"/></g><defs><clipPath id="A"><path fill="#fff" transform="translate(1 1.203)" d="M0 0h26v25.594H0z"/></clipPath></defs></svg>