<svg xmlns="http://www.w3.org/2000/svg" width="28" height="28" fill="#000" xmlns:v="https://vecta.io/nano"><path d="M13.084.022L12.66.06C8.688.418 4.967 2.562 2.61 5.856 1.297 7.688.458 9.766.141 11.967c-.112.768-.126.995-.126 2.037s.014 1.269.126 2.037c.76 5.252 4.498 9.665 9.567 11.3.908.293 1.865.492 2.953.612.424.046 2.256.046 2.679 0 1.878-.208 3.47-.673 5.039-1.474.241-.123.287-.156.254-.183-.022-.016-1.047-1.392-2.277-3.054l-2.236-3.021-2.802-4.148-2.822-4.145c-.011-.003-.022 1.84-.027 4.09l-.06 4.191c-.071.134-.126.189-.241.249-.088.044-.164.052-.577.052h-.473l-.126-.079a.51.51 0 0 1-.183-.2l-.057-.123.005-5.482.008-5.485.085-.107a.75.75 0 0 1 .202-.167c.112-.055.156-.06.629-.06.558 0 .651.022.796.18.041.044 1.559 2.329 3.374 5.083l5.518 8.358 2.215 3.355.112-.074c.992-.645 2.042-1.564 2.874-2.521 1.769-2.031 2.909-4.509 3.292-7.15.112-.768.126-.995.126-2.037s-.014-1.269-.126-2.037c-.76-5.252-4.498-9.665-9.567-11.3-.894-.29-1.846-.489-2.912-.61a38.76 38.76 0 0 0-2.299-.032zm5.725 8.459a.55.55 0 0 1 .276.323c.022.071.027 1.591.022 5.017l-.008 4.916-.867-1.329-.869-1.329v-3.574l.027-3.672c.044-.153.139-.273.271-.344.112-.057.153-.063.582-.063.405 0 .476.005.566.055zm2.636 17.365c-.096.06-.126.101-.041.055.06-.036.159-.109.142-.112a.56.56 0 0 0-.101.057zm-.189.123c-.049.038-.049.041.011.011.033-.016.06-.036.06-.041 0-.022-.014-.016-.071.03zm-.137.082c-.049.038-.049.041.011.011.033-.016.06-.035.06-.041 0-.022-.014-.016-.071.03zm-.137.082c-.049.038-.049.041.011.011.033-.016.06-.035.06-.041 0-.022-.014-.016-.071.03zm-.208.109c-.104.055-.098.077.005.025.046-.025.082-.049.082-.055 0-.019-.003-.016-.087.03z"/></svg>