<svg xmlns="http://www.w3.org/2000/svg" width="28" height="28" fill="none" xmlns:v="https://vecta.io/nano"><path d="M8.592 23.419c-.02-.036-.038-.073-.054-.111-.109-.253-.143-.532-.097-.803H1.978l9.605-16.904 3.154 5.544.914-1.618-2.749-4.843a1.68 1.68 0 0 0-1.341-.886c-.279.013-.549.104-.78.262s-.411.379-.523.635L.528 21.804a1.72 1.72 0 0 0-.085 1.615c.15.236.362.425.614.547s.532.17.81.14h8.15c-.278.03-.559-.018-.811-.14s-.464-.311-.614-.547h0z" fill="#00c492"/><path d="M27.33 21.804L19.334 7.718c-.131-.251-.323-.464-.559-.621s-.507-.252-.788-.276a1.49 1.49 0 0 0-1.301.894l-1.034 1.811.92 1.618 1.424-2.521 7.911 13.88h-3.008c.038.229.017.465-.063.683-.017.048-.038.095-.063.14l-.026.051a1.72 1.72 0 0 1-1.45.726h4.706a1.72 1.72 0 0 0 1.45-.726c.129-.248.186-.527.164-.805s-.121-.545-.286-.77z" fill="#008776"/><path d="M22.747 23.38l.026-.051a.87.87 0 0 0 .062-.14c.08-.219.101-.454.063-.684-.044-.247-.133-.485-.262-.701l-6.058-10.659-.926-1.618-.92 1.618-6.056 10.659a2.16 2.16 0 0 0-.234.701c-.049.271-.018.55.088.803a1.01 1.01 0 0 0 .054.111c.15.236.362.425.614.547s.532.17.81.14h11.28c.284.008.566-.053.82-.18s.474-.314.638-.546h0zm-7.096-10.616l5.538 9.742H10.116l5.535-9.741z" fill="#2d4a5d"/></svg>