<svg xmlns="http://www.w3.org/2000/svg" width="28" height="28" fill="none" xmlns:v="https://vecta.io/nano"><g clip-path="url(#C)"><path d="M13.893 1.557c-6.331 0-5.935 2.745-5.935 2.745l.007 2.844h6.041v.854H5.565s-4.051-.459-4.051 5.928S5.05 20.09 5.05 20.09h2.11v-2.964s-.114-3.536 3.479-3.536h5.992s3.366.054 3.366-3.253V4.867s.511-3.31-6.105-3.31zM10.562 3.47c.143 0 .284.028.416.082s.252.135.353.236.181.221.236.353.083.273.082.416-.028.284-.082.416-.135.252-.236.353-.221.181-.353.236-.273.083-.416.082-.284-.028-.416-.082-.252-.135-.353-.236-.181-.221-.236-.353-.083-.273-.082-.416.028-.284.082-.416.135-.252.236-.353.221-.181.353-.236.273-.083.416-.082z" fill="url(#A)"/><path d="M14.073 26.365c6.331 0 5.935-2.745 5.935-2.745l-.007-2.844H13.96v-.854H22.4s4.051.459 4.051-5.928-3.536-6.161-3.536-6.161h-2.11v2.964s.114 3.536-3.479 3.536h-5.992s-3.366-.054-3.366 3.254v5.47s-.511 3.31 6.105 3.31h0zm3.331-1.912c-.143 0-.284-.028-.416-.082s-.252-.135-.353-.236-.181-.221-.236-.353-.083-.273-.082-.416.028-.284.082-.416.135-.252.236-.353.221-.181.353-.236.273-.083.416-.082.284.028.416.082.252.135.353.235.181.221.236.353.083.273.082.416-.028.284-.082.416-.135.252-.236.353-.221.181-.353.235-.273.083-.416.083h0z" fill="url(#B)"/></g><defs><linearGradient id="A" x1="3.911" y1="3.788" x2="16.269" y2="16.023" gradientUnits="userSpaceOnUse"><stop stop-color="#387eb8"/><stop offset="1" stop-color="#366994"/></linearGradient><linearGradient id="B" x1="11.496" y1="11.645" x2="24.767" y2="24.191" gradientUnits="userSpaceOnUse"><stop stop-color="#ffe052"/><stop offset="1" stop-color="#ffc331"/></linearGradient><clipPath id="C"><path fill="#fff" transform="translate(1.5 1.55)" d="M0 0h25v24.9H0z"/></clipPath></defs></svg>