<svg xmlns="http://www.w3.org/2000/svg" width="28" height="28" fill="none" xmlns:v="https://vecta.io/nano"><g clip-path="url(#A)"><path d="M14 16.525c1.378 0 2.496-1.13 2.496-2.524S15.378 11.476 14 11.476s-2.496 1.13-2.496 2.524 1.117 2.524 2.496 2.524z" fill="#61dafb"/><g stroke="#61dafb" stroke-width="1.382"><path d="M14 19.172c7.396 0 13.391-2.316 13.391-5.172S21.396 8.828 14 8.828.609 11.144.609 14 6.604 19.172 14 19.172z"/><path d="M9.572 16.586c3.698 6.479 8.678 10.573 11.124 9.145s1.43-7.838-2.268-14.317S9.75.84 7.304 2.269s-1.43 7.838 2.268 14.317z"/><path d="M9.572 11.414c-3.698 6.479-4.713 12.889-2.268 14.317s7.426-2.666 11.124-9.145 4.713-12.889 2.268-14.317-7.426 2.666-11.124 9.145z"/></g></g><defs><clipPath id="A"><path fill="#fff" transform="translate(0 1.4)" d="M0 0h28v25.2H0z"/></clipPath></defs></svg>