<svg xmlns="http://www.w3.org/2000/svg" width="28" height="28" fill="none" xmlns:v="https://vecta.io/nano"><g clip-path="url(#A)"><path d="M24.095 15.564c-.979.005-1.827.241-2.538.591-.262-.52-.525-.974-.569-1.313-.049-.394-.109-.634-.049-1.105s.333-1.138.333-1.192c-.005-.049-.06-.29-.623-.295s-1.05.109-1.105.257-.164.487-.235.837c-.098.514-1.126 2.335-1.712 3.292-.191-.372-.356-.7-.388-.963-.049-.394-.109-.634-.049-1.105s.334-1.137.334-1.192c-.005-.049-.06-.29-.623-.295s-1.05.109-1.105.257-.115.498-.235.837c-.115.339-1.482 3.38-1.838 4.173l-.454.946c-.115.219-.005.016-.016.038l-.153.29v.006c-.077.137-.159.268-.197.268-.027 0-.082-.366.011-.869.202-1.056.694-2.702.689-2.762 0-.027.093-.317-.317-.465-.399-.148-.541.098-.574.098s-.06.088-.06.088.443-1.854-.848-1.854c-.809 0-1.925.881-2.477 1.684l-1.881 1.028-.908.498-.06-.066c-1.564-1.668-4.457-2.849-4.337-5.091.044-.815.328-2.964 5.556-5.567 4.282-2.133 7.711-1.548 8.307-.246.848 1.859-1.832 5.316-6.284 5.813-1.695.191-2.587-.465-2.811-.711-.235-.257-.268-.268-.355-.219-.142.077-.055.306 0 .443.131.345.678.957 1.608 1.263.815.268 2.805.416 5.212-.514 2.696-1.044 4.801-3.943 4.184-6.366-.629-2.466-4.72-3.276-8.586-1.903-2.302.82-4.796 2.1-6.59 3.779C.219 9.948-.12 11.687.022 12.409c.498 2.576 4.047 4.255 5.469 5.496l-.197.109c-.711.35-3.418 1.766-4.096 3.265-.766 1.695.12 2.915.711 3.079 1.827.509 3.697-.405 4.709-1.909 1.006-1.504.886-3.456.421-4.348l-.016-.033.558-.328 1.028-.58c-.175.476-.301 1.039-.366 1.859-.077.963.317 2.209.837 2.702.23.213.503.219.673.219.602 0 .875-.498 1.176-1.094.372-.727.7-1.57.7-1.57s-.41 2.281.711 2.281c.41 0 .82-.53 1.006-.804v.005s.011-.016.033-.055l.066-.104v-.011l1.077-2.012c.705-1.389 1.384-3.128 1.384-3.128a9.97 9.97 0 0 0 .268 1.127c.12.416.383.869.585 1.313l-.262.361.005.005-.432.547-1.312 1.646c-.104.257-.082.448.12.602.148.109.41.131.689.109.503-.033.853-.159 1.028-.235a3.56 3.56 0 0 0 .886-.465 1.97 1.97 0 0 0 .848-1.744c-.016-.421-.153-.837-.323-1.231l.148-.219c.864-1.263 1.531-2.652 1.531-2.652a9.97 9.97 0 0 0 .268 1.127c.104.355.312.744.498 1.127-.809.662-1.318 1.427-1.493 1.93-.323.93-.071 1.351.405 1.449.213.044.52-.055.749-.153.284-.093.629-.252.946-.487.547-.405 1.072-.968 1.044-1.728-.016-.35-.109-.695-.235-1.023.689-.284 1.581-.448 2.712-.312 2.434.284 2.915 1.805 2.822 2.439s-.602.984-.771 1.094c-.17.104-.224.142-.208.219.022.115.098.109.246.088.202-.033 1.28-.52 1.323-1.69.066-1.504-1.362-3.145-3.894-3.128zM5.327 21.891c-.804.88-1.936 1.214-2.417.93-.52-.301-.317-1.597.673-2.532.602-.569 1.384-1.094 1.898-1.416l.498-.301.055-.033.126-.077c.366 1.334.016 2.505-.831 3.429zm5.879-3.998c-.279.684-.869 2.439-1.225 2.341-.306-.082-.492-1.411-.06-2.723.219-.662.684-1.449.957-1.756.443-.492.924-.656 1.045-.454.142.263-.542 2.166-.717 2.592zm4.851 2.319c-.12.06-.23.104-.279.071-.038-.022.049-.104.049-.104l.848-.952.476-.607v.066c0 .787-.755 1.312-1.094 1.526zm3.741-.853c-.088-.066-.076-.268.219-.902.115-.252.377-.673.831-1.072a1.35 1.35 0 0 1 .082.47c-.005.984-.705 1.351-1.132 1.504z" fill="#cf649a"/></g><defs><clipPath id="A"><path fill="#fff" transform="translate(0 3.5)" d="M0 0h28v21H0z"/></clipPath></defs></svg>