<svg xmlns="http://www.w3.org/2000/svg" width="28" height="28" fill="none" xmlns:v="https://vecta.io/nano"><path d="M10.815.89c3.47-.89 7.304-.371 10.364 1.517 3.854 2.305 6.37 6.664 6.434 11.151.141 4.532-2.221 9.026-6.017 11.491-4.225 2.842-10.07 2.951-14.384.25C2.813 22.674.246 17.38.906 12.297 1.437 6.926 5.585 2.189 10.815.89h0z" fill="#010101"/><path d="M10.284 3.086c6.555-2.625 14.595 2.221 15.274 9.25 1.056 6.325-4.193 12.752-10.601 12.937-6.094.608-11.983-4.558-12.156-10.678-.454-4.955 2.81-9.871 7.483-11.51z" fill="#fff"/><path d="M10.943 13.181l8.815-7.215-4.769 7.227c-1.351.006-2.701.006-4.046-.013h0zm2.484 1.338l4.059.019-8.828 7.214 4.769-7.234z" fill="#010101"/></svg>