<svg xmlns="http://www.w3.org/2000/svg" width="28" height="28" fill="#8e75ff" fill-rule="evenodd" xmlns:v="https://vecta.io/nano"><path d="M18.268 18.673v-8.404a.54.54 0 0 0-.542-.542H9.333V1.053h17.059a.54.54 0 0 1 .383.159c.05.05.09.11.117.176s.041.136.041.207v17.078h-8.665z"/><path opacity=".405" d="M9.333 1.053v8.675H1.321a.27.27 0 0 1-.25-.167.27.27 0 0 1 .059-.295l8.203-8.212zm8.936 25.64v-8.02h8.665l-8.202 8.211a.27.27 0 0 1-.295.059.27.27 0 0 1-.167-.25zM9.333 9.727h8.665a.27.27 0 0 1 .271.271v8.675H9.874c-.071 0-.142-.014-.207-.041a.54.54 0 0 1-.293-.293.54.54 0 0 1-.041-.207V9.727z"/></svg>