<svg xmlns="http://www.w3.org/2000/svg" width="28" height="30" fill="none" xmlns:v="https://vecta.io/nano"><path d="M23.56 5.307C21.111 1.804 16.274.765 12.776 2.993L6.635 6.906a7.04 7.04 0 0 0-1.149.901 7.02 7.02 0 0 0-.939 1.119 7.07 7.07 0 0 0-.688 1.288 7.06 7.06 0 0 0-.407 1.402c-.073.403-.112.811-.117 1.22a7.39 7.39 0 0 0 .085 1.223c.062.405.158.804.285 1.193a7.4 7.4 0 0 0 .477 1.129 7.1 7.1 0 0 0-.362.615c-.11.211-.21.427-.298.648s-.165.446-.231.675-.119.461-.161.695c-.176.984-.152 1.994.068 2.969a7.5 7.5 0 0 0 1.215 2.71c2.449 3.503 7.286 4.542 10.784 2.315l6.142-3.897a7.05 7.05 0 0 0 1.148-.902 7.07 7.07 0 0 0 .939-1.119 7.05 7.05 0 0 0 1.097-2.689c.073-.403.112-.811.117-1.22s-.023-.818-.086-1.223-.158-.803-.286-1.192-.288-.766-.478-1.129c.131-.199.252-.404.362-.615a7.12 7.12 0 0 0 .298-.648c.088-.221.166-.446.232-.675a7.18 7.18 0 0 0 .163-.694c.087-.491.125-.99.113-1.488s-.073-.994-.183-1.481-.268-.961-.472-1.416-.453-.889-.742-1.295" fill="#ff3e00"/><path d="M12.176 25.032a4.88 4.88 0 0 1-1.474.15 4.89 4.89 0 0 1-2.745-1.018 4.89 4.89 0 0 1-1.019-1.075 4.48 4.48 0 0 1-.447-.778c-.123-.273-.218-.559-.284-.851a4.53 4.53 0 0 1-.109-.891c-.007-.3.017-.599.07-.894l.029-.143.034-.143.039-.142.044-.139.116-.353.315.235.559.373.588.324.613.274.634.221.235.068-.021.235a1.38 1.38 0 0 0 .049.476 1.35 1.35 0 0 0 .085.224 1.39 1.39 0 0 0 .122.206 1.47 1.47 0 0 0 .308.323c.118.091.249.165.39.216a1.47 1.47 0 0 0 .437.089 1.45 1.45 0 0 0 .444-.045l.099-.03.096-.038.093-.045.089-.052 6.133-3.914c.075-.047.145-.102.209-.164a1.3 1.3 0 0 0 .17-.204 1.28 1.28 0 0 0 .125-.234c.033-.082.058-.168.073-.255a1.39 1.39 0 0 0 .02-.27c-.002-.09-.014-.18-.034-.268a1.33 1.33 0 0 0-.086-.256c-.037-.082-.083-.161-.136-.234-.085-.123-.189-.231-.307-.323s-.25-.165-.39-.216a1.47 1.47 0 0 0-.437-.09 1.48 1.48 0 0 0-.444.045l-.099.03-.096.037-.093.045-.089.052-2.355 1.495-.295.172-.307.149-.318.125-.326.101c-.48.124-.976.174-1.471.149s-.983-.126-1.448-.298a4.88 4.88 0 0 1-1.292-.718c-.392-.304-.735-.665-1.018-1.072a4.5 4.5 0 0 1-.445-.779c-.122-.274-.217-.559-.282-.851s-.102-.591-.108-.891.017-.599.07-.894c.104-.58.328-1.133.657-1.622s.758-.904 1.257-1.218l6.151-3.913.293-.172.305-.149.316-.125.324-.101c.48-.125.977-.176 1.473-.15s.985.126 1.45.299.902.415 1.294.719a4.89 4.89 0 0 1 1.018 1.075c.174.244.324.504.447.778a4.53 4.53 0 0 1 .284.851 4.5 4.5 0 0 1 .11.891 4.48 4.48 0 0 1-.069.895l-.03.145-.034.143-.039.143-.043.141-.117.353-.313-.235-.56-.376-.59-.327a8.02 8.02 0 0 0-1.252-.498l-.236-.068.022-.235a1.39 1.39 0 0 0-.001-.242c-.007-.08-.022-.16-.043-.238s-.049-.154-.084-.226-.075-.143-.122-.209c-.086-.121-.189-.227-.307-.317a1.45 1.45 0 0 0-.388-.211c-.28-.102-.584-.115-.873-.039l-.099.03-.096.038-.093.045-.089.052-6.144 3.906a1.27 1.27 0 0 0-.208.164 1.32 1.32 0 0 0-.17.203 1.31 1.31 0 0 0-.125.234c-.033.082-.058.167-.074.254s-.022.18-.02.271a1.39 1.39 0 0 0 .12.526c.037.082.083.161.135.235a1.46 1.46 0 0 0 .305.32c.117.091.248.164.387.216.28.104.585.121.874.048l.099-.031.096-.038.093-.045.089-.052 2.355-1.492.295-.173.308-.15.318-.125.327-.1c.48-.125.977-.176 1.473-.151s.985.125 1.45.298a4.87 4.87 0 0 1 1.294.719c.393.304.736.666 1.019 1.074a4.53 4.53 0 0 1 .447.778c.123.273.218.559.284.851a4.52 4.52 0 0 1 .041 1.785c-.052.29-.134.573-.244.845s-.249.533-.414.777a4.22 4.22 0 0 1-.564.675 4.24 4.24 0 0 1-.692.543l-6.144 3.913-.295.172-.308.149-.318.126-.327.101z" fill="#fff"/></svg>