<svg xmlns="http://www.w3.org/2000/svg" width="28" height="28" fill="none" xmlns:v="https://vecta.io/nano"><g clip-path="url(#A)"><path d="M14 5.606c-3.732 0-6.064 1.865-6.997 5.596 1.4-1.865 3.032-2.565 4.898-2.099 1.065.266 1.826 1.038 2.668 1.893C15.941 12.389 17.529 14 20.997 14c3.732 0 6.064-1.865 6.997-5.596-1.399 1.865-3.032 2.565-4.898 2.099-1.064-.266-1.825-1.038-2.668-1.893-1.372-1.392-2.96-3.004-6.429-3.004zM7.002 14C3.271 14 .938 15.865.005 19.596c1.399-1.865 3.032-2.565 4.898-2.098 1.064.266 1.825 1.038 2.668 1.893 1.372 1.392 2.96 3.004 6.429 3.004 3.732 0 6.064-1.865 6.997-5.596-1.4 1.865-3.032 2.565-4.898 2.099-1.065-.266-1.826-1.038-2.668-1.893C12.059 15.612 10.471 14 7.002 14z" fill="#06b6d4"/></g><defs><clipPath id="A"><path fill="#fff" transform="translate(0 5.606)" d="M0 0h28v16.789H0z"/></clipPath></defs></svg>