<svg width="89" height="26" viewBox="0 0 89 26" fill="none" xmlns="http://www.w3.org/2000/svg">
<path d="M2.36577 0.872559H17.6087C24.7546 9.73476 12.5399 14.8655 17.6087 25.127H2.36577C2.36577 25.127 -1.83221 20.4627 2.36577 12.9998C6.56375 5.53687 2.36577 0.872559 2.36577 0.872559Z" fill="url(#paint0_linear_81_2199)"/>
<path d="M30.8267 20H40.4068V17.5048H33.8531V13.8571H40.036V11.5222H33.8531V8.03494H40.4068V5.53971H30.8267V20ZM44.9162 20.2305C45.4106 20.2305 45.8181 20.0668 46.1388 19.7395C46.4661 19.4121 46.6298 19.0079 46.6298 18.5269C46.6298 18.0392 46.4661 17.635 46.1388 17.3144C45.8181 16.987 45.4106 16.8233 44.9162 16.8233C44.4219 16.8233 44.011 16.987 43.6837 17.3144C43.3563 17.635 43.1926 18.0392 43.1926 18.5269C43.1926 19.0079 43.3563 19.4121 43.6837 19.7395C44.011 20.0668 44.4219 20.2305 44.9162 20.2305ZM54.837 20.3307C55.9994 20.3307 57.0349 20.1136 57.9435 19.6793C58.8521 19.2451 59.5836 18.6405 60.1381 17.8655C60.6926 17.0906 61.02 16.1987 61.1202 15.1899L61.1302 15.0697H58.184L58.164 15.1599C58.0504 15.6943 57.84 16.1586 57.5327 16.5528C57.232 16.9403 56.8512 17.2409 56.3903 17.4547C55.936 17.6618 55.4182 17.7653 54.837 17.7653C54.0754 17.7653 53.414 17.5649 52.8529 17.1641C52.2984 16.7565 51.8675 16.1787 51.5601 15.4304C51.2595 14.6822 51.1092 13.797 51.1092 12.7749V12.7548C51.1092 11.726 51.2595 10.8408 51.5601 10.0993C51.8675 9.35103 52.2984 8.77649 52.8529 8.37565C53.414 7.97481 54.0721 7.77439 54.827 7.77439C55.4149 7.77439 55.9393 7.88797 56.4003 8.11511C56.8613 8.33557 57.242 8.64956 57.5427 9.05708C57.85 9.45792 58.0537 9.92891 58.154 10.47L58.174 10.5703H61.1202V10.46C61.0266 9.43788 60.6993 8.53265 60.1381 7.74433C59.5769 6.95601 58.8387 6.33805 57.9235 5.89045C57.0149 5.43616 55.9827 5.20902 54.827 5.20902C53.4307 5.20902 52.2215 5.51299 51.1994 6.12093C50.1839 6.72887 49.399 7.59736 48.8445 8.72639C48.2966 9.84874 48.0227 11.1916 48.0227 12.7548V12.7749C48.0227 14.3381 48.2966 15.6843 48.8445 16.8133C49.399 17.9424 50.1839 18.8108 51.1994 19.4188C52.2215 20.0267 53.4341 20.3307 54.837 20.3307ZM63.3549 20H66.281V13.8772C66.281 13.3561 66.3845 12.9118 66.5916 12.5444C66.7987 12.1703 67.096 11.8863 67.4835 11.6926C67.871 11.4922 68.3286 11.392 68.8564 11.392C69.0835 11.392 69.304 11.4087 69.5178 11.4421C69.7315 11.4688 69.932 11.5089 70.119 11.5623V8.99696C69.9854 8.95687 69.8284 8.92681 69.648 8.90677C69.4677 8.88004 69.2839 8.86668 69.0969 8.86668C68.4088 8.86668 67.8342 9.04038 67.3733 9.38777C66.9123 9.72849 66.595 10.2062 66.4213 10.8208H66.281V9.05708H63.3549V20ZM71.8627 20H74.7888V9.05708H71.8627V20ZM73.3358 7.46374C73.7834 7.46374 74.1642 7.30675 74.4781 6.99276C74.7921 6.67877 74.9491 6.30465 74.9491 5.87041C74.9491 5.42948 74.7921 5.05537 74.4781 4.74806C74.1642 4.43407 73.7834 4.27707 73.3358 4.27707C72.8881 4.27707 72.504 4.43407 72.1833 4.74806C71.8693 5.05537 71.7124 5.42948 71.7124 5.87041C71.7124 6.30465 71.8693 6.67877 72.1833 6.99276C72.504 7.30675 72.8881 7.46374 73.3358 7.46374ZM81.8235 20.2305C82.7588 20.2305 83.5872 20.0835 84.3087 19.7896C85.0302 19.4956 85.5948 19.0814 86.0023 18.547C86.4098 18.0058 86.6136 17.3778 86.6136 16.663V16.643C86.6136 15.8413 86.3564 15.2033 85.8419 14.729C85.3275 14.248 84.5125 13.8905 83.3968 13.6567L81.573 13.2659C81.1989 13.179 80.8983 13.0822 80.6711 12.9753C80.4507 12.8684 80.2903 12.7415 80.1901 12.5945C80.0966 12.4475 80.0498 12.2805 80.0498 12.0934V12.0834C80.0498 11.8362 80.12 11.6258 80.2603 11.4521C80.4072 11.2717 80.6077 11.1348 80.8615 11.0412C81.1221 10.941 81.4194 10.8909 81.7534 10.8909C82.3012 10.8909 82.7321 11.0112 83.0461 11.2517C83.3668 11.4922 83.5605 11.7761 83.6273 12.1035L83.6373 12.1536H86.353V12.1035C86.3196 11.4955 86.1225 10.9444 85.7618 10.45C85.401 9.95563 84.8833 9.56147 84.2085 9.26752C83.5405 8.97357 82.7254 8.8266 81.7634 8.8266C80.8482 8.8266 80.0465 8.97023 79.3584 9.2575C78.6703 9.53809 78.1358 9.93559 77.755 10.45C77.3809 10.9577 77.1938 11.559 77.1938 12.2538V12.2638C77.1938 12.8049 77.3074 13.2826 77.5345 13.6968C77.7684 14.111 78.1191 14.4584 78.5868 14.739C79.0544 15.0196 79.639 15.2367 80.3404 15.3903L82.1743 15.7711C82.7221 15.8981 83.1096 16.0551 83.3367 16.2421C83.5705 16.4292 83.6874 16.6697 83.6874 16.9636V16.9737C83.6874 17.2142 83.6106 17.4246 83.457 17.605C83.3033 17.7787 83.0895 17.9156 82.8156 18.0158C82.5417 18.1161 82.2177 18.1662 81.8436 18.1662C81.2624 18.1662 80.8047 18.0526 80.4707 17.8254C80.1367 17.5983 79.9162 17.301 79.8093 16.9336L79.7893 16.8835H76.9233V16.9436C76.9968 17.5849 77.2306 18.1528 77.6247 18.6472C78.0189 19.1415 78.5667 19.529 79.2682 19.8096C79.9696 20.0902 80.8214 20.2305 81.8235 20.2305Z" fill="black"/>
<defs>
<linearGradient id="paint0_linear_81_2199" x1="10.6742" y1="0.872559" x2="10.6742" y2="25.127" gradientUnits="userSpaceOnUse">
<stop stop-color="#FF29C3"/>
<stop offset="1" stop-color="#FBFF38"/>
</linearGradient>
</defs>
</svg>
